<mxfile host="www.draw.io" modified="2019-11-16T06:11:27.992Z" agent="Mozilla/5.0 (Windows NT 10.0; WOW64) AppleWebKit/537.36 (KHTML, like Gecko) Chrome/75.0.3770.90 Safari/537.36" etag="i8mjWGQX1AxwxQPByF6x" version="12.2.6" type="github" pages="1">
  <diagram name="Page-1" id="13e1069c-82ec-6db2-03f1-153e76fe0fe0">
    <mxGraphModel dx="854" dy="836" grid="0" gridSize="10" guides="1" tooltips="1" connect="1" arrows="1" fold="1" page="0" pageScale="1" pageWidth="1100" pageHeight="850" background="#ffffff" math="0" shadow="0">
      <root>
        <mxCell id="0"/>
        <mxCell id="1" parent="0"/>
        <mxCell id="3R1nxpf77wTPrujjXhb4-1" value="ManagementUtility" style="shape=umlLifeline;perimeter=lifelinePerimeter;whiteSpace=wrap;html=1;container=1;collapsible=0;recursiveResize=0;outlineConnect=0;" vertex="1" parent="1">
          <mxGeometry x="190" y="-16" width="132" height="515" as="geometry"/>
        </mxCell>
        <mxCell id="3R1nxpf77wTPrujjXhb4-3" value="" style="html=1;points=[];perimeter=orthogonalPerimeter;" vertex="1" parent="3R1nxpf77wTPrujjXhb4-1">
          <mxGeometry x="61" y="70" width="10" height="41" as="geometry"/>
        </mxCell>
        <mxCell id="3R1nxpf77wTPrujjXhb4-6" value="" style="html=1;points=[];perimeter=orthogonalPerimeter;fontFamily=Helvetica;fontSize=12;fontColor=#000000;align=center;strokeColor=#000000;fillColor=#ffffff;" vertex="1" parent="3R1nxpf77wTPrujjXhb4-1">
          <mxGeometry x="61" y="150" width="10" height="316" as="geometry"/>
        </mxCell>
        <mxCell id="3R1nxpf77wTPrujjXhb4-7" value="&lt;span style=&quot;font-size: 11px&quot;&gt;execute()&lt;/span&gt;" style="html=1;verticalAlign=bottom;endArrow=block;entryX=0;entryY=0;" edge="1" target="3R1nxpf77wTPrujjXhb4-6" parent="3R1nxpf77wTPrujjXhb4-1">
          <mxGeometry relative="1" as="geometry">
            <mxPoint x="-108" y="150" as="sourcePoint"/>
          </mxGeometry>
        </mxCell>
        <mxCell id="3R1nxpf77wTPrujjXhb4-8" value="return" style="html=1;verticalAlign=bottom;endArrow=open;dashed=1;endSize=8;exitX=0;exitY=0.95;" edge="1" source="3R1nxpf77wTPrujjXhb4-6" parent="3R1nxpf77wTPrujjXhb4-1">
          <mxGeometry relative="1" as="geometry">
            <mxPoint x="-9" y="226" as="targetPoint"/>
          </mxGeometry>
        </mxCell>
        <mxCell id="3R1nxpf77wTPrujjXhb4-25" value="" style="html=1;points=[];perimeter=orthogonalPerimeter;" vertex="1" parent="3R1nxpf77wTPrujjXhb4-1">
          <mxGeometry x="66" y="342" width="10" height="67" as="geometry"/>
        </mxCell>
        <mxCell id="3R1nxpf77wTPrujjXhb4-26" value="django.setup()" style="edgeStyle=orthogonalEdgeStyle;html=1;align=left;spacingLeft=2;endArrow=block;rounded=0;entryX=1;entryY=0;" edge="1" target="3R1nxpf77wTPrujjXhb4-25" parent="3R1nxpf77wTPrujjXhb4-1">
          <mxGeometry relative="1" as="geometry">
            <mxPoint x="71" y="322" as="sourcePoint"/>
            <Array as="points">
              <mxPoint x="96" y="322"/>
            </Array>
          </mxGeometry>
        </mxCell>
        <mxCell id="3R1nxpf77wTPrujjXhb4-2" value="Actor" style="shape=umlActor;verticalLabelPosition=bottom;labelBackgroundColor=#ffffff;verticalAlign=top;html=1;" vertex="1" parent="1">
          <mxGeometry x="34" y="47" width="30" height="60" as="geometry"/>
        </mxCell>
        <mxCell id="3R1nxpf77wTPrujjXhb4-4" value="init(sys.argv)" style="html=1;verticalAlign=bottom;endArrow=block;entryX=0;entryY=0;exitX=0.75;exitY=0.1;exitDx=0;exitDy=0;exitPerimeter=0;" edge="1" target="3R1nxpf77wTPrujjXhb4-3" parent="1" source="3R1nxpf77wTPrujjXhb4-2">
          <mxGeometry relative="1" as="geometry">
            <mxPoint x="181" y="54" as="sourcePoint"/>
          </mxGeometry>
        </mxCell>
        <mxCell id="3R1nxpf77wTPrujjXhb4-5" value="utility" style="html=1;verticalAlign=bottom;endArrow=open;dashed=1;endSize=8;exitX=0;exitY=0.95;entryX=0.533;entryY=0.783;entryDx=0;entryDy=0;entryPerimeter=0;" edge="1" source="3R1nxpf77wTPrujjXhb4-3" parent="1" target="3R1nxpf77wTPrujjXhb4-2">
          <mxGeometry relative="1" as="geometry">
            <mxPoint x="181" y="130" as="targetPoint"/>
          </mxGeometry>
        </mxCell>
        <mxCell id="3R1nxpf77wTPrujjXhb4-9" value="LazySettings" style="shape=umlLifeline;perimeter=lifelinePerimeter;whiteSpace=wrap;html=1;container=1;collapsible=0;recursiveResize=0;outlineConnect=0;" vertex="1" parent="1">
          <mxGeometry x="429" y="-16" width="100" height="535" as="geometry"/>
        </mxCell>
        <mxCell id="3R1nxpf77wTPrujjXhb4-15" value="" style="html=1;points=[];perimeter=orthogonalPerimeter;" vertex="1" parent="3R1nxpf77wTPrujjXhb4-9">
          <mxGeometry x="45" y="159" width="10" height="138" as="geometry"/>
        </mxCell>
        <mxCell id="3R1nxpf77wTPrujjXhb4-19" value="" style="html=1;points=[];perimeter=orthogonalPerimeter;" vertex="1" parent="3R1nxpf77wTPrujjXhb4-9">
          <mxGeometry x="50" y="197" width="10" height="61" as="geometry"/>
        </mxCell>
        <mxCell id="3R1nxpf77wTPrujjXhb4-20" value="_setup()" style="edgeStyle=orthogonalEdgeStyle;html=1;align=left;spacingLeft=2;endArrow=block;rounded=0;entryX=1;entryY=0;" edge="1" target="3R1nxpf77wTPrujjXhb4-19" parent="3R1nxpf77wTPrujjXhb4-9">
          <mxGeometry relative="1" as="geometry">
            <mxPoint x="55" y="177" as="sourcePoint"/>
            <Array as="points">
              <mxPoint x="80" y="177"/>
            </Array>
          </mxGeometry>
        </mxCell>
        <mxCell id="3R1nxpf77wTPrujjXhb4-16" value="__getattr__(&quot;INSTALLED_APPS&quot;)" style="html=1;verticalAlign=bottom;endArrow=block;entryX=0;entryY=0;" edge="1" target="3R1nxpf77wTPrujjXhb4-15" parent="1" source="3R1nxpf77wTPrujjXhb4-6">
          <mxGeometry relative="1" as="geometry">
            <mxPoint x="404" y="143" as="sourcePoint"/>
          </mxGeometry>
        </mxCell>
        <mxCell id="3R1nxpf77wTPrujjXhb4-18" value="Settings" style="shape=umlLifeline;perimeter=lifelinePerimeter;whiteSpace=wrap;html=1;container=1;collapsible=0;recursiveResize=0;outlineConnect=0;" vertex="1" parent="1">
          <mxGeometry x="625" y="-16" width="100" height="551" as="geometry"/>
        </mxCell>
        <mxCell id="3R1nxpf77wTPrujjXhb4-22" value="" style="html=1;points=[];perimeter=orthogonalPerimeter;" vertex="1" parent="3R1nxpf77wTPrujjXhb4-18">
          <mxGeometry x="45" y="207" width="10" height="43" as="geometry"/>
        </mxCell>
        <mxCell id="3R1nxpf77wTPrujjXhb4-23" value="init()" style="html=1;verticalAlign=bottom;endArrow=block;entryX=0;entryY=0;" edge="1" target="3R1nxpf77wTPrujjXhb4-22" parent="1" source="3R1nxpf77wTPrujjXhb4-19">
          <mxGeometry relative="1" as="geometry">
            <mxPoint x="600" y="191" as="sourcePoint"/>
          </mxGeometry>
        </mxCell>
        <mxCell id="3R1nxpf77wTPrujjXhb4-24" value="_wrapped" style="html=1;verticalAlign=bottom;endArrow=open;dashed=1;endSize=8;exitX=0;exitY=0.95;" edge="1" source="3R1nxpf77wTPrujjXhb4-22" parent="1" target="3R1nxpf77wTPrujjXhb4-19">
          <mxGeometry relative="1" as="geometry">
            <mxPoint x="514" y="228" as="targetPoint"/>
          </mxGeometry>
        </mxCell>
        <mxCell id="3R1nxpf77wTPrujjXhb4-21" value="_wrapped is empty" style="shape=umlFrame;whiteSpace=wrap;html=1;" vertex="1" parent="1">
          <mxGeometry x="403" y="154" width="300" height="104" as="geometry"/>
        </mxCell>
        <mxCell id="3R1nxpf77wTPrujjXhb4-27" value="Apps" style="shape=umlLifeline;perimeter=lifelinePerimeter;whiteSpace=wrap;html=1;container=1;collapsible=0;recursiveResize=0;outlineConnect=0;" vertex="1" parent="1">
          <mxGeometry x="844" y="-16" width="100" height="834" as="geometry"/>
        </mxCell>
        <mxCell id="3R1nxpf77wTPrujjXhb4-28" value="" style="html=1;points=[];perimeter=orthogonalPerimeter;" vertex="1" parent="3R1nxpf77wTPrujjXhb4-27">
          <mxGeometry x="45" y="355" width="10" height="285" as="geometry"/>
        </mxCell>
        <mxCell id="3R1nxpf77wTPrujjXhb4-30" value="return" style="html=1;verticalAlign=bottom;endArrow=open;dashed=1;endSize=8;exitX=0;exitY=0.95;" edge="1" source="3R1nxpf77wTPrujjXhb4-28" parent="3R1nxpf77wTPrujjXhb4-27">
          <mxGeometry relative="1" as="geometry">
            <mxPoint x="-25" y="431" as="targetPoint"/>
          </mxGeometry>
        </mxCell>
        <mxCell id="3R1nxpf77wTPrujjXhb4-29" value="populate(installed_apps)" style="html=1;verticalAlign=bottom;endArrow=block;entryX=0;entryY=0;" edge="1" target="3R1nxpf77wTPrujjXhb4-28" parent="1" source="3R1nxpf77wTPrujjXhb4-25">
          <mxGeometry relative="1" as="geometry">
            <mxPoint x="819" y="339" as="sourcePoint"/>
          </mxGeometry>
        </mxCell>
        <mxCell id="3R1nxpf77wTPrujjXhb4-31" value="AppConfig" style="shape=umlLifeline;perimeter=lifelinePerimeter;whiteSpace=wrap;html=1;container=1;collapsible=0;recursiveResize=0;outlineConnect=0;" vertex="1" parent="1">
          <mxGeometry x="1072" y="-16" width="100" height="1063" as="geometry"/>
        </mxCell>
        <mxCell id="3R1nxpf77wTPrujjXhb4-32" value="" style="html=1;points=[];perimeter=orthogonalPerimeter;" vertex="1" parent="3R1nxpf77wTPrujjXhb4-31">
          <mxGeometry x="45" y="375.5" width="10" height="80" as="geometry"/>
        </mxCell>
        <mxCell id="3R1nxpf77wTPrujjXhb4-35" value="" style="html=1;points=[];perimeter=orthogonalPerimeter;" vertex="1" parent="3R1nxpf77wTPrujjXhb4-31">
          <mxGeometry x="50" y="416" width="10" height="40" as="geometry"/>
        </mxCell>
        <mxCell id="3R1nxpf77wTPrujjXhb4-36" value="self call" style="edgeStyle=orthogonalEdgeStyle;html=1;align=left;spacingLeft=2;endArrow=block;rounded=0;entryX=1;entryY=0;" edge="1" target="3R1nxpf77wTPrujjXhb4-35" parent="3R1nxpf77wTPrujjXhb4-31">
          <mxGeometry relative="1" as="geometry">
            <mxPoint x="55" y="396" as="sourcePoint"/>
            <Array as="points">
              <mxPoint x="80" y="396"/>
            </Array>
          </mxGeometry>
        </mxCell>
        <mxCell id="3R1nxpf77wTPrujjXhb4-33" value="create(entry)" style="html=1;verticalAlign=bottom;endArrow=block;entryX=0;entryY=0;" edge="1" target="3R1nxpf77wTPrujjXhb4-32" parent="1" source="3R1nxpf77wTPrujjXhb4-28">
          <mxGeometry relative="1" as="geometry">
            <mxPoint x="1047" y="346" as="sourcePoint"/>
          </mxGeometry>
        </mxCell>
        <mxCell id="3R1nxpf77wTPrujjXhb4-34" value="app_config" style="html=1;verticalAlign=bottom;endArrow=open;dashed=1;endSize=8;exitX=0;exitY=0.95;" edge="1" source="3R1nxpf77wTPrujjXhb4-32" parent="1" target="3R1nxpf77wTPrujjXhb4-28">
          <mxGeometry relative="1" as="geometry">
            <mxPoint x="1047" y="422" as="targetPoint"/>
          </mxGeometry>
        </mxCell>
      </root>
    </mxGraphModel>
  </diagram>
</mxfile>
